<svg width="24" height="25" viewBox="0 0 24 25" fill="none" xmlns="http://www.w3.org/2000/svg">
<path d="M12 1.69534L3 5.69534V11.6953C3 17.2453 6.84 22.4353 12 23.6953C17.16 22.4353 21 17.2453 21 11.6953V5.69534L12 1.69534ZM12 5.59534C12.5933 5.59534 13.1734 5.77129 13.6667 6.10093C14.1601 6.43058 14.5446 6.89911 14.7716 7.44729C14.9987 7.99547 15.0581 8.59867 14.9424 9.18061C14.8266 9.76256 14.5409 10.2971 14.1213 10.7167C13.7018 11.1362 13.1672 11.4219 12.5853 11.5377C12.0033 11.6535 11.4001 11.594 10.8519 11.367C10.3038 11.1399 9.83524 10.7554 9.50559 10.2621C9.17595 9.76871 9 9.18869 9 8.59534C9 7.79969 9.31607 7.03663 9.87868 6.47402C10.4413 5.91141 11.2044 5.59534 12 5.59534ZM12 13.4953C14 13.4953 18 14.5853 18 16.5753C17.3432 17.5655 16.4516 18.3777 15.4047 18.9395C14.3578 19.5014 13.1881 19.7954 12 19.7954C10.8119 19.7954 9.64218 19.5014 8.59527 18.9395C7.54836 18.3777 6.65677 17.5655 6 16.5753C6 14.5853 10 13.4953 12 13.4953Z" fill="#EEEEEE"/>
</svg>
