<svg width="12" height="20" viewBox="0 0 12 20" fill="none" xmlns="http://www.w3.org/2000/svg">
<path d="M1.15002 18.7953C0.900024 18.5453 0.775024 18.2493 0.775024 17.9073C0.775024 17.566 0.900024 17.2703 1.15002 17.0203L8.47502 9.69534L1.12502 2.34534C0.891691 2.11201 0.775024 1.82034 0.775024 1.47034C0.775024 1.12034 0.900024 0.820343 1.15002 0.570343C1.40002 0.320343 1.69602 0.195343 2.03802 0.195343C2.37936 0.195343 2.67502 0.320343 2.92502 0.570343L11.325 8.99534C11.425 9.09534 11.496 9.20368 11.538 9.32034C11.5794 9.43701 11.6 9.56201 11.6 9.69534C11.6 9.82868 11.5794 9.95368 11.538 10.0703C11.496 10.187 11.425 10.2953 11.325 10.3953L2.90002 18.8203C2.66669 19.0537 2.37936 19.1703 2.03802 19.1703C1.69602 19.1703 1.40002 19.0453 1.15002 18.7953Z" fill="#EEEEEE"/>
</svg>
