<svg width="40" height="40" viewBox="0 0 40 40" fill="none" xmlns="http://www.w3.org/2000/svg">
<path fill-rule="evenodd" clip-rule="evenodd" d="M17.93 21.6667C20.2267 21.6667 21.415 24.35 19.975 26.0467L19.8167 26.2184L14.3667 31.6667H18.3333C18.9753 31.667 19.5926 31.9143 20.0573 32.3574C20.5219 32.8004 20.7983 33.4053 20.8292 34.0466C20.86 34.6879 20.643 35.3164 20.223 35.802C19.8031 36.2877 19.2123 36.5931 18.5733 36.655L18.3333 36.6667H8.73332C6.43665 36.6667 5.24998 33.9834 6.68998 32.2867L6.84832 32.115L12.2983 26.6667H8.33165C7.68962 26.6664 7.07233 26.4191 6.60767 25.976C6.14302 25.533 5.86663 24.9281 5.83578 24.2868C5.80492 23.6456 6.02197 23.017 6.44194 22.5314C6.86192 22.0458 7.45262 21.7403 8.09165 21.6784L8.33332 21.6667H17.93ZM28.3333 5.00004C28.9964 5.00004 29.6322 5.26343 30.1011 5.73227C30.5699 6.20111 30.8333 6.837 30.8333 7.50004V27.0117L31.28 26.565C31.5122 26.3329 31.7879 26.1488 32.0912 26.0233C32.3946 25.8977 32.7197 25.8331 33.0481 25.8332C33.3764 25.8332 33.7015 25.898 34.0048 26.0237C34.3081 26.1494 34.5837 26.3337 34.8158 26.5659C35.0479 26.7981 35.232 27.0738 35.3576 27.3771C35.4832 27.6805 35.5478 28.0056 35.5477 28.334C35.5476 28.6623 35.4829 28.9874 35.3572 29.2907C35.2314 29.594 35.0472 29.8696 34.815 30.1017L30.1017 34.815C29.8695 35.0474 29.5938 35.2316 29.2904 35.3574C28.987 35.4831 28.6618 35.5478 28.3333 35.5478C28.0049 35.5478 27.6797 35.4831 27.3762 35.3574C27.0728 35.2316 26.7971 35.0474 26.565 34.815L21.8517 30.1017C21.3827 29.6329 21.1191 28.9971 21.1189 28.334C21.1188 27.6709 21.382 27.0349 21.8508 26.5659C22.3196 26.0969 22.9555 25.8333 23.6186 25.8332C24.2817 25.833 24.9177 26.0963 25.3867 26.565L25.8333 27.0117V7.50004C25.8333 6.837 26.0967 6.20111 26.5655 5.73227C27.0344 5.26343 27.6703 5.00004 28.3333 5.00004ZM13.3333 3.33337C14.0434 3.33344 14.7384 3.53878 15.3345 3.92466C15.9307 4.31055 16.4025 4.86052 16.6933 5.50837L16.8017 5.77671L20.6883 16.66C20.9025 17.2644 20.8762 17.928 20.615 18.5135C20.3538 19.0991 19.8776 19.5619 19.2848 19.8063C18.692 20.0507 18.0279 20.058 17.4299 19.8267C16.8319 19.5953 16.3457 19.1431 16.0716 18.5634L15.975 18.3334H10.69C10.4701 18.9324 10.0297 19.4248 9.45871 19.7098C8.88775 19.9948 8.22947 20.0508 7.61857 19.8664C7.00766 19.682 6.49031 19.2712 6.17239 18.7179C5.85446 18.1646 5.76 17.5107 5.90832 16.89L5.97832 16.6584L9.86665 5.77671C10.1222 5.06183 10.5925 4.44339 11.213 4.00602C11.8336 3.56865 12.5741 3.33372 13.3333 3.33337ZM13.3333 10.9334L12.4767 13.3334H14.19L13.3333 10.9334Z" fill="#9900F0"/>
</svg>
