<svg width="20" height="23" viewBox="0 0 20 23" fill="none" xmlns="http://www.w3.org/2000/svg">
<path d="M0 17.4367H20V22.1944H0V17.4367ZM4.25 5.54253H7V4.35311H4V0.784851H12V4.35311H9V5.54253H15.8C16.8 5.54253 17.8 6.73195 18 7.92137L18.5 16.2473H1.5L2.05 7.92137C2.05 6.73195 3.05 5.54253 4.25 5.54253ZM11 7.92137V10.3002H16V7.92137H11ZM4 7.92137V9.11079H6V7.92137H4ZM7 7.92137V9.11079H9V7.92137H7ZM4 10.3002V11.4896H6V10.3002H4ZM7 10.3002V11.4896H9V10.3002H7ZM4 12.6791V13.8685H6V12.6791H4ZM7 12.6791V13.8685H9V12.6791H7ZM5 1.97427V3.16369H11V1.97427H5Z" fill="white"/>
</svg>
