<svg width="40" height="40" viewBox="0 0 40 40" fill="none" xmlns="http://www.w3.org/2000/svg">
<path d="M13.3333 20C14.0434 20.0001 14.7384 20.2054 15.3345 20.5913C15.9306 20.9772 16.4025 21.5272 16.6933 22.175L16.8016 22.4434L20.6883 33.3267C20.9024 33.9311 20.8762 34.5946 20.615 35.1802C20.3538 35.7658 19.8775 36.2286 19.2847 36.473C18.6919 36.7174 18.0279 36.7247 17.4299 36.4933C16.8319 36.262 16.3456 35.8097 16.0716 35.23L15.9783 35.0067L15.6783 34.1667H10.9883L10.6883 35.0084C10.4751 35.6169 10.035 36.1196 9.45998 36.4114C8.88493 36.7031 8.21939 36.7614 7.60239 36.574C6.98538 36.3866 6.46465 35.9681 6.14896 35.4058C5.83327 34.8435 5.74704 34.181 5.90829 33.5567L5.97829 33.325L9.86496 22.4434C10.1206 21.7282 10.5911 21.1096 11.212 20.6722C11.8329 20.2348 12.5738 20 13.3333 20ZM28.3333 5.00004C28.9963 5.00004 29.6322 5.26343 30.1011 5.73227C30.5699 6.20111 30.8333 6.837 30.8333 7.50004V27.0117L31.28 26.565C31.5122 26.3329 31.7878 26.1488 32.0912 26.0233C32.3946 25.8977 32.7197 25.8331 33.048 25.8332C33.3764 25.8332 33.7015 25.898 34.0048 26.0237C34.3081 26.1494 34.5837 26.3337 34.8158 26.5659C35.0479 26.7981 35.232 27.0738 35.3576 27.3771C35.4832 27.6805 35.5478 28.0056 35.5477 28.334C35.5476 28.6623 35.4829 28.9874 35.3571 29.2907C35.2314 29.594 35.0472 29.8696 34.815 30.1017L30.1016 34.815C29.8695 35.0474 29.5938 35.2316 29.2904 35.3574C28.987 35.4831 28.6617 35.5478 28.3333 35.5478C28.0049 35.5478 27.6796 35.4831 27.3762 35.3574C27.0728 35.2316 26.7971 35.0474 26.565 34.815L21.8516 30.1017C21.3826 29.6329 21.1191 28.9971 21.1189 28.334C21.1188 27.6709 21.382 27.0349 21.8508 26.5659C22.3196 26.0969 22.9554 25.8333 23.6185 25.8332C24.2816 25.833 24.9176 26.0963 25.3866 26.565L25.8333 27.0117V7.50004C25.8333 6.837 26.0967 6.20111 26.5655 5.73227C27.0344 5.26343 27.6703 5.00004 28.3333 5.00004ZM13.3333 27.6L12.7733 29.1667H13.8933L13.3333 27.6ZM17.93 3.33337C20.2266 3.33337 21.415 6.01671 19.975 7.71337L19.8166 7.88504L14.3666 13.3334H18.3333C18.9753 13.3337 19.5926 13.581 20.0573 14.0241C20.5219 14.4671 20.7983 15.0719 20.8292 15.7132C20.86 16.3545 20.643 16.9831 20.223 17.4687C19.803 17.9543 19.2123 18.2598 18.5733 18.3217L18.3333 18.3334H8.73329C6.43663 18.3334 5.24996 15.65 6.68996 13.9534L6.84829 13.7817L12.2983 8.33337H8.33163C7.6896 8.33306 7.0723 8.08575 6.60765 7.64269C6.143 7.19964 5.86661 6.5948 5.83575 5.95352C5.8049 5.31223 6.02195 4.68365 6.44192 4.19804C6.86189 3.71242 7.4526 3.40699 8.09163 3.34504L8.33329 3.33337H17.93Z" fill="#9900F0"/>
</svg>
