<svg width="24" height="24" viewBox="0 0 24 24" fill="none" xmlns="http://www.w3.org/2000/svg">
<path d="M11.7533 2C10.4872 2 9.2335 2.25866 8.06377 2.7612C6.89404 3.26375 5.83119 4.00035 4.93592 4.92893C3.12783 6.8043 2.11206 9.34784 2.11206 12C2.11206 14.6522 3.12783 17.1957 4.93592 19.0711C5.83119 19.9997 6.89404 20.7362 8.06377 21.2388C9.2335 21.7413 10.4872 22 11.7533 22C14.3103 22 16.7626 20.9464 18.5707 19.0711C20.3788 17.1957 21.3946 14.6522 21.3946 12C21.3946 10.6868 21.1452 9.38642 20.6607 8.17317C20.1762 6.95991 19.466 5.85752 18.5707 4.92893C17.6754 4.00035 16.6126 3.26375 15.4429 2.7612C14.2731 2.25866 13.0194 2 11.7533 2ZM11.7533 4C13.7989 4 15.7608 4.84285 17.2072 6.34315C18.6537 7.84344 19.4663 9.87827 19.4663 12C19.4663 14.1217 18.6537 16.1566 17.2072 17.6569C15.7608 19.1571 13.7989 20 11.7533 20C9.7077 20 7.74587 19.1571 6.2994 17.6569C4.85293 16.1566 4.04031 14.1217 4.04031 12C4.04031 9.87827 4.85293 7.84344 6.2994 6.34315C7.74587 4.84285 9.7077 4 11.7533 4ZM6.93269 10L11.7533 15L16.5739 10H6.93269Z" fill="black"/>
</svg>
