<svg width="234" height="180" viewBox="0 0 234 180" fill="none" xmlns="http://www.w3.org/2000/svg">
<path d="M72.0469 97.5078C72.0469 100.227 71.5547 102.793 70.5703 105.207C69.6094 107.621 68.2734 109.742 66.5625 111.57C64.8516 113.375 62.8125 114.805 60.4453 115.859C58.1016 116.914 55.5586 117.441 52.8164 117.441C50.0742 117.441 47.4844 116.914 45.0469 115.859C42.6328 114.805 40.5234 113.375 38.7188 111.57C36.9141 109.742 35.4844 107.621 34.4297 105.207C33.3984 102.793 32.8828 100.227 32.8828 97.5078C32.8828 94.2734 33.1992 91.1211 33.832 88.0508C34.4648 84.957 35.3906 82.0391 36.6094 79.2969C37.8281 76.5312 39.3164 73.9883 41.0742 71.668C42.832 69.3477 44.8242 67.3203 47.0508 65.5859H60.6562C59.25 66.5 57.8789 67.5195 56.543 68.6445C55.207 69.7695 53.9297 70.9766 52.7109 72.2656C51.5156 73.5547 50.4023 74.9141 49.3711 76.3438C48.3398 77.7734 47.4258 79.2617 46.6289 80.8086C47.6367 80.1289 48.7266 79.5547 49.8984 79.0859C51.0938 78.5938 52.3125 78.3477 53.5547 78.3477C56.3906 78.3477 58.9453 78.8281 61.2188 79.7891C63.5156 80.7266 65.4609 82.0508 67.0547 83.7617C68.6484 85.4492 69.8789 87.4648 70.7461 89.8086C71.6133 92.1523 72.0469 94.7188 72.0469 97.5078ZM61.957 97.5078C61.957 96.1719 61.7344 94.918 61.2891 93.7461C60.8672 92.5508 60.2578 91.5078 59.4609 90.6172C58.6641 89.7031 57.7031 88.9883 56.5781 88.4727C55.4531 87.957 54.1992 87.6992 52.8164 87.6992C51.4336 87.6992 50.1797 87.957 49.0547 88.4727C47.9297 88.9883 46.9688 89.7031 46.1719 90.6172C45.3984 91.5078 44.8008 92.5508 44.3789 93.7461C43.957 94.918 43.7461 96.1719 43.7461 97.5078C43.7461 98.7969 43.957 100.039 44.3789 101.234C44.8242 102.406 45.4453 103.449 46.2422 104.363C47.0391 105.277 47.9883 106.004 49.0898 106.543C50.2148 107.082 51.457 107.352 52.8164 107.352C54.1992 107.352 55.4531 107.094 56.5781 106.578C57.7031 106.062 58.6641 105.359 59.4609 104.469C60.2578 103.555 60.8672 102.5 61.2891 101.305C61.7344 100.109 61.957 98.8438 61.957 97.5078ZM108.188 90.793C108.188 85.1914 107.25 81.0312 105.375 78.3125C103.523 75.5938 100.934 74.2344 97.6055 74.2344C94.3008 74.2344 91.7344 75.582 89.9062 78.2773C88.0781 80.9727 87.1641 85.1445 87.1641 90.793C87.1641 96.3945 88.0781 100.555 89.9062 103.273C91.7344 105.992 94.3008 107.352 97.6055 107.352C99.2695 107.352 100.758 107.023 102.07 106.367C103.383 105.688 104.484 104.668 105.375 103.309C106.289 101.949 106.98 100.238 107.449 98.1758C107.941 96.0898 108.188 93.6289 108.188 90.793ZM117.785 90.793C117.785 95.5742 117.258 99.6172 116.203 102.922C115.148 106.227 113.707 108.898 111.879 110.938C110.051 112.977 107.906 114.453 105.445 115.367C103.008 116.258 100.395 116.703 97.6055 116.703C94.8164 116.703 92.1914 116.246 89.7305 115.332C87.293 114.395 85.1602 112.906 83.332 110.867C81.5273 108.805 80.0977 106.133 79.043 102.852C77.9883 99.5469 77.4609 95.5273 77.4609 90.793C77.4609 86.0117 77.9883 81.9805 79.043 78.6992C80.0977 75.3945 81.5273 72.7227 83.332 70.6836C85.1602 68.6445 87.293 67.168 89.7305 66.2539C92.1914 65.3398 94.8164 64.8828 97.6055 64.8828C100.395 64.8828 103.008 65.3516 105.445 66.2891C107.906 67.2031 110.051 68.6914 111.879 70.7539C113.707 72.8164 115.148 75.4883 116.203 78.7695C117.258 82.0508 117.785 86.0586 117.785 90.793ZM143.098 104.926H133.5V95.3281H123.516V85.7656H133.5V75.3945H143.098V85.7656H153.047V95.3281H143.098V104.926Z" fill="white"/>
<path d="M177.5 90C177.5 138.325 138.325 177.5 90 177.5C41.6751 177.5 2.5 138.325 2.5 90C2.5 41.6751 41.6751 2.5 90 2.5C138.325 2.5 177.5 41.6751 177.5 90Z" stroke="white" stroke-width="5"/>
<path d="M208 148.258V150.771H199C198.824 150.771 198.66 150.807 198.508 150.877C198.355 150.941 198.224 151.032 198.112 151.149C197.995 151.261 197.904 151.393 197.84 151.545C197.775 151.697 197.743 151.861 197.743 152.037C197.743 152.213 197.775 152.377 197.84 152.529C197.904 152.682 197.995 152.816 198.112 152.934C198.224 153.045 198.355 153.133 198.508 153.197C198.66 153.262 198.824 153.294 199 153.294H208V155.816H199C198.824 155.816 198.66 155.849 198.508 155.913C198.355 155.978 198.224 156.068 198.112 156.186C197.995 156.297 197.904 156.429 197.84 156.581C197.775 156.733 197.743 156.897 197.743 157.073C197.743 157.249 197.775 157.413 197.84 157.565C197.904 157.718 197.995 157.853 198.112 157.97C198.224 158.081 198.355 158.169 198.508 158.233C198.66 158.298 198.824 158.33 199 158.33H208V160.853H199C198.479 160.853 197.989 160.756 197.532 160.562C197.069 160.363 196.668 160.094 196.328 159.754C195.982 159.408 195.713 159.007 195.52 158.55C195.32 158.087 195.221 157.595 195.221 157.073C195.221 156.604 195.306 156.153 195.476 155.72C195.64 155.286 195.88 154.896 196.196 154.551C195.88 154.205 195.64 153.818 195.476 153.391C195.306 152.957 195.221 152.506 195.221 152.037C195.221 151.516 195.32 151.026 195.52 150.569C195.713 150.106 195.982 149.705 196.328 149.365C196.668 149.02 197.069 148.75 197.532 148.557C197.989 148.357 198.479 148.258 199 148.258H208ZM196.029 143.424C196.252 143.424 196.46 143.468 196.653 143.556C196.847 143.638 197.017 143.752 197.163 143.898C197.304 144.045 197.418 144.218 197.506 144.417C197.588 144.61 197.629 144.818 197.629 145.041C197.629 145.264 197.588 145.475 197.506 145.674C197.418 145.867 197.304 146.037 197.163 146.184C197.017 146.324 196.847 146.438 196.653 146.526C196.46 146.608 196.252 146.649 196.029 146.649C195.812 146.649 195.607 146.608 195.414 146.526C195.215 146.438 195.045 146.324 194.904 146.184C194.758 146.037 194.644 145.867 194.562 145.674C194.474 145.475 194.43 145.264 194.43 145.041C194.43 144.818 194.474 144.61 194.562 144.417C194.644 144.218 194.758 144.045 194.904 143.898C195.045 143.752 195.215 143.638 195.414 143.556C195.607 143.468 195.812 143.424 196.029 143.424ZM208 143.837V146.254H198.587V143.837H208ZM208 139.583V142H194.843V139.583H208ZM208 135.329V137.746H194.843V135.329H208ZM196.029 130.662C196.252 130.662 196.46 130.706 196.653 130.794C196.847 130.876 197.017 130.99 197.163 131.137C197.304 131.283 197.418 131.456 197.506 131.655C197.588 131.849 197.629 132.057 197.629 132.279C197.629 132.502 197.588 132.713 197.506 132.912C197.418 133.105 197.304 133.275 197.163 133.422C197.017 133.562 196.847 133.677 196.653 133.765C196.46 133.847 196.252 133.888 196.029 133.888C195.812 133.888 195.607 133.847 195.414 133.765C195.215 133.677 195.045 133.562 194.904 133.422C194.758 133.275 194.644 133.105 194.562 132.912C194.474 132.713 194.43 132.502 194.43 132.279C194.43 132.057 194.474 131.849 194.562 131.655C194.644 131.456 194.758 131.283 194.904 131.137C195.045 130.99 195.215 130.876 195.414 130.794C195.607 130.706 195.812 130.662 196.029 130.662ZM208 131.075V133.492H198.587V131.075H208ZM203.21 120.142C203.913 120.142 204.569 120.268 205.179 120.52C205.782 120.771 206.307 121.114 206.752 121.548C207.191 121.981 207.54 122.491 207.798 123.077C208.05 123.657 208.176 124.281 208.176 124.949C208.176 125.611 208.05 126.235 207.798 126.821C207.54 127.401 207.191 127.911 206.752 128.351C206.307 128.784 205.782 129.127 205.179 129.379C204.569 129.631 203.913 129.757 203.21 129.757C202.495 129.757 201.833 129.631 201.224 129.379C200.614 129.127 200.09 128.784 199.65 128.351C199.205 127.911 198.856 127.401 198.604 126.821C198.353 126.235 198.227 125.611 198.227 124.949C198.227 124.281 198.347 123.657 198.587 123.077C198.821 122.491 199.158 121.981 199.598 121.548C200.031 121.114 200.556 120.771 201.171 120.52C201.78 120.268 202.46 120.142 203.21 120.142ZM203.21 122.559C202.823 122.559 202.475 122.623 202.164 122.752C201.848 122.875 201.578 123.045 201.355 123.262C201.127 123.479 200.954 123.733 200.837 124.026C200.714 124.313 200.652 124.621 200.652 124.949C200.652 125.277 200.714 125.588 200.837 125.881C200.954 126.168 201.127 126.42 201.355 126.637C201.578 126.848 201.848 127.015 202.164 127.138C202.475 127.261 202.823 127.322 203.21 127.322C203.573 127.322 203.91 127.261 204.221 127.138C204.531 127.015 204.801 126.848 205.029 126.637C205.258 126.42 205.439 126.168 205.574 125.881C205.703 125.588 205.768 125.277 205.768 124.949C205.768 124.621 205.706 124.313 205.583 124.026C205.46 123.733 205.287 123.479 205.064 123.262C204.842 123.045 204.572 122.875 204.256 122.752C203.939 122.623 203.591 122.559 203.21 122.559ZM208 116.415V118.814H198.587V118.234L199.501 117.443C199.149 117.057 198.88 116.62 198.692 116.134C198.499 115.642 198.402 115.129 198.402 114.596C198.402 114.021 198.514 113.479 198.736 112.97C198.953 112.46 199.255 112.015 199.642 111.634C200.022 111.253 200.471 110.954 200.986 110.737C201.496 110.515 202.041 110.403 202.621 110.403H208V112.803H202.621C202.375 112.803 202.144 112.85 201.927 112.943C201.704 113.037 201.511 113.166 201.347 113.33C201.183 113.494 201.054 113.685 200.96 113.901C200.866 114.118 200.819 114.35 200.819 114.596C200.819 114.848 200.866 115.085 200.96 115.308C201.054 115.53 201.183 115.724 201.347 115.888C201.511 116.052 201.704 116.181 201.927 116.274C202.144 116.368 202.375 116.415 202.621 116.415H208ZM208 103.521V109.006H205.609V103.521C205.609 103.357 205.551 103.217 205.434 103.1C205.316 102.982 205.176 102.924 205.012 102.924C204.842 102.924 204.73 102.982 204.678 103.1C204.625 103.217 204.599 103.357 204.599 103.521V106.018C204.599 106.434 204.52 106.823 204.361 107.187C204.203 107.55 203.989 107.866 203.72 108.136C203.444 108.405 203.125 108.619 202.762 108.777C202.398 108.93 202.009 109.006 201.593 109.006C201.177 109.006 200.787 108.93 200.424 108.777C200.061 108.619 199.744 108.405 199.475 108.136C199.205 107.866 198.994 107.55 198.842 107.187C198.684 106.823 198.604 106.434 198.604 106.018V101.157H200.995V106.018C200.995 106.182 201.054 106.322 201.171 106.439C201.288 106.557 201.429 106.615 201.593 106.615C201.763 106.615 201.909 106.557 202.032 106.439C202.149 106.322 202.208 106.182 202.208 106.018V103.521C202.208 103.111 202.278 102.725 202.419 102.361C202.554 101.998 202.744 101.682 202.99 101.412C203.236 101.143 203.532 100.929 203.878 100.771C204.224 100.612 204.602 100.533 205.012 100.533C205.428 100.533 205.817 100.612 206.181 100.771C206.538 100.929 206.854 101.143 207.13 101.412C207.399 101.682 207.613 101.998 207.771 102.361C207.924 102.725 208 103.111 208 103.521ZM206.708 83.8867C207.212 84.4727 207.599 85.1289 207.868 85.8555C208.138 86.582 208.272 87.335 208.272 88.1143C208.272 88.7119 208.193 89.2891 208.035 89.8457C207.883 90.3965 207.666 90.915 207.385 91.4014C207.098 91.8818 206.755 92.3213 206.356 92.7197C205.958 93.1182 205.519 93.4609 205.038 93.748C204.552 94.0293 204.033 94.249 203.482 94.4072C202.926 94.5596 202.349 94.6357 201.751 94.6357C201.153 94.6357 200.576 94.5596 200.02 94.4072C199.463 94.249 198.944 94.0293 198.464 93.748C197.978 93.4609 197.535 93.1182 197.137 92.7197C196.738 92.3213 196.398 91.8818 196.117 91.4014C195.83 90.915 195.61 90.3965 195.458 89.8457C195.3 89.2891 195.221 88.7119 195.221 88.1143C195.221 87.335 195.355 86.582 195.625 85.8555C195.889 85.1289 196.275 84.4727 196.785 83.8867L198.982 85.2227C198.584 85.5918 198.279 86.0283 198.068 86.5322C197.852 87.0361 197.743 87.5635 197.743 88.1143C197.743 88.6709 197.849 89.1924 198.06 89.6787C198.271 90.165 198.558 90.5898 198.921 90.9531C199.278 91.3164 199.703 91.6035 200.195 91.8145C200.682 92.0254 201.2 92.1309 201.751 92.1309C202.302 92.1309 202.82 92.0254 203.307 91.8145C203.787 91.6035 204.209 91.3164 204.572 90.9531C204.936 90.5898 205.223 90.165 205.434 89.6787C205.645 89.1924 205.75 88.6709 205.75 88.1143C205.75 87.5635 205.645 87.0361 205.434 86.5322C205.217 86.0283 204.909 85.5918 204.511 85.2227L206.708 83.8867ZM208 80.2568V82.6738H194.843V80.2568H208ZM203.21 69.3232C203.913 69.3232 204.569 69.4492 205.179 69.7012C205.782 69.9531 206.307 70.2959 206.752 70.7295C207.191 71.1631 207.54 71.6729 207.798 72.2588C208.05 72.8389 208.176 73.4629 208.176 74.1309C208.176 74.793 208.05 75.417 207.798 76.0029C207.54 76.583 207.191 77.0928 206.752 77.5322C206.307 77.9658 205.782 78.3086 205.179 78.5605C204.569 78.8125 203.913 78.9385 203.21 78.9385C202.495 78.9385 201.833 78.8125 201.224 78.5605C200.614 78.3086 200.09 77.9658 199.65 77.5322C199.205 77.0928 198.856 76.583 198.604 76.0029C198.353 75.417 198.227 74.793 198.227 74.1309C198.227 73.4629 198.347 72.8389 198.587 72.2588C198.821 71.6729 199.158 71.1631 199.598 70.7295C200.031 70.2959 200.556 69.9531 201.171 69.7012C201.78 69.4492 202.46 69.3232 203.21 69.3232ZM203.21 71.7402C202.823 71.7402 202.475 71.8047 202.164 71.9336C201.848 72.0566 201.578 72.2266 201.355 72.4434C201.127 72.6602 200.954 72.915 200.837 73.208C200.714 73.4951 200.652 73.8027 200.652 74.1309C200.652 74.459 200.714 74.7695 200.837 75.0625C200.954 75.3496 201.127 75.6016 201.355 75.8184C201.578 76.0293 201.848 76.1963 202.164 76.3193C202.475 76.4424 202.823 76.5039 203.21 76.5039C203.573 76.5039 203.91 76.4424 204.221 76.3193C204.531 76.1963 204.801 76.0293 205.029 75.8184C205.258 75.6016 205.439 75.3496 205.574 75.0625C205.703 74.7695 205.768 74.459 205.768 74.1309C205.768 73.8027 205.706 73.4951 205.583 73.208C205.46 72.915 205.287 72.6602 205.064 72.4434C204.842 72.2266 204.572 72.0566 204.256 71.9336C203.939 71.8047 203.591 71.7402 203.21 71.7402ZM208 63.3467C208 63.9268 207.892 64.4717 207.675 64.9814C207.452 65.4912 207.15 65.9395 206.77 66.3262C206.383 66.707 205.935 67.0088 205.425 67.2314C204.915 67.4482 204.37 67.5566 203.79 67.5566H200.995V68.7256H198.604V67.5566H194.843V65.166H198.604V61.5273H200.995V65.166H203.79C204.042 65.166 204.279 65.1191 204.502 65.0254C204.719 64.9316 204.909 64.8027 205.073 64.6387C205.237 64.4746 205.369 64.2812 205.469 64.0586C205.562 63.8359 205.609 63.5986 205.609 63.3467V61.5273H208V63.3467ZM208 57.7744V60.1738H194.843V57.7744H199C198.783 57.4873 198.631 57.1914 198.543 56.8867C198.449 56.582 198.402 56.2715 198.402 55.9551C198.402 55.375 198.514 54.8301 198.736 54.3203C198.953 53.8105 199.255 53.3682 199.642 52.9932C200.022 52.6123 200.471 52.3135 200.986 52.0967C201.496 51.874 202.041 51.7627 202.621 51.7627H208V54.1797H202.621V54.1621C202.375 54.1621 202.144 54.209 201.927 54.3027C201.704 54.3965 201.511 54.5254 201.347 54.6895C201.183 54.8535 201.054 55.0439 200.96 55.2607C200.866 55.4775 200.819 55.709 200.819 55.9551C200.819 56.207 200.866 56.4443 200.96 56.667C201.054 56.8896 201.183 57.083 201.347 57.2471C201.511 57.4111 201.704 57.54 201.927 57.6338C202.144 57.7275 202.375 57.7744 202.621 57.7744H208ZM205.697 46.3047C205.727 46.2109 205.747 46.1172 205.759 46.0234C205.765 45.9297 205.768 45.8359 205.768 45.7422C205.768 45.5078 205.735 45.2822 205.671 45.0654C205.606 44.8486 205.516 44.6465 205.398 44.459C205.275 44.2656 205.129 44.0957 204.959 43.9492C204.783 43.7969 204.59 43.6738 204.379 43.5801L206.146 41.8223C206.462 42.0449 206.746 42.3027 206.998 42.5957C207.25 42.8828 207.464 43.1963 207.64 43.5361C207.815 43.8701 207.947 44.2246 208.035 44.5996C208.129 44.9688 208.176 45.3496 208.176 45.7422C208.176 46.4043 208.053 47.0283 207.807 47.6143C207.561 48.1943 207.218 48.7041 206.778 49.1436C206.339 49.5771 205.817 49.9199 205.214 50.1719C204.604 50.4238 203.937 50.5498 203.21 50.5498C202.466 50.5498 201.786 50.4238 201.171 50.1719C200.556 49.9199 200.031 49.5771 199.598 49.1436C199.164 48.7041 198.827 48.1943 198.587 47.6143C198.347 47.0283 198.227 46.4043 198.227 45.7422C198.227 45.3496 198.273 44.9658 198.367 44.5908C198.461 44.2158 198.596 43.8613 198.771 43.5273C198.947 43.1875 199.164 42.8711 199.422 42.5781C199.674 42.2852 199.958 42.0273 200.274 41.8047L205.697 46.3047ZM200.749 45.0742C200.708 45.1855 200.682 45.2969 200.67 45.4082C200.658 45.5137 200.652 45.625 200.652 45.7422C200.652 46.0703 200.714 46.3809 200.837 46.6738C200.954 46.9609 201.124 47.2129 201.347 47.4297C201.569 47.6406 201.839 47.8076 202.155 47.9307C202.466 48.0537 202.817 48.1152 203.21 48.1152C203.298 48.1152 203.397 48.1123 203.509 48.1064C203.62 48.0947 203.734 48.0801 203.852 48.0625C203.963 48.0391 204.071 48.0127 204.177 47.9834C204.282 47.9541 204.376 47.916 204.458 47.8691L200.749 45.0742ZM208 35.4238V40.9082H205.609V35.4238C205.609 35.2598 205.551 35.1191 205.434 35.002C205.316 34.8848 205.176 34.8262 205.012 34.8262C204.842 34.8262 204.73 34.8848 204.678 35.002C204.625 35.1191 204.599 35.2598 204.599 35.4238V37.9199C204.599 38.3359 204.52 38.7256 204.361 39.0889C204.203 39.4521 203.989 39.7686 203.72 40.0381C203.444 40.3076 203.125 40.5215 202.762 40.6797C202.398 40.832 202.009 40.9082 201.593 40.9082C201.177 40.9082 200.787 40.832 200.424 40.6797C200.061 40.5215 199.744 40.3076 199.475 40.0381C199.205 39.7686 198.994 39.4521 198.842 39.0889C198.684 38.7256 198.604 38.3359 198.604 37.9199V33.0596H200.995V37.9199C200.995 38.084 201.054 38.2246 201.171 38.3418C201.288 38.459 201.429 38.5176 201.593 38.5176C201.763 38.5176 201.909 38.459 202.032 38.3418C202.149 38.2246 202.208 38.084 202.208 37.9199V35.4238C202.208 35.0137 202.278 34.627 202.419 34.2637C202.554 33.9004 202.744 33.584 202.99 33.3145C203.236 33.0449 203.532 32.8311 203.878 32.6729C204.224 32.5146 204.602 32.4355 205.012 32.4355C205.428 32.4355 205.817 32.5146 206.181 32.6729C206.538 32.8311 206.854 33.0449 207.13 33.3145C207.399 33.584 207.613 33.9004 207.771 34.2637C207.924 34.627 208 35.0137 208 35.4238ZM219.919 134.767H224.964V132.244C224.964 131.898 224.899 131.573 224.771 131.269C224.636 130.964 224.454 130.697 224.226 130.469C223.997 130.24 223.73 130.062 223.426 129.933C223.115 129.798 222.787 129.73 222.441 129.73C222.096 129.73 221.771 129.798 221.466 129.933C221.155 130.062 220.886 130.24 220.657 130.469C220.429 130.697 220.25 130.964 220.121 131.269C219.986 131.573 219.919 131.898 219.919 132.244V134.767ZM230 134.767V137.289H217.396V132.244C217.396 131.781 217.458 131.336 217.581 130.908C217.698 130.48 217.868 130.082 218.091 129.713C218.308 129.338 218.571 128.998 218.882 128.693C219.187 128.383 219.526 128.119 219.901 127.902C220.276 127.68 220.678 127.51 221.105 127.393C221.533 127.27 221.979 127.208 222.441 127.208C223.133 127.208 223.786 127.34 224.401 127.604C225.011 127.867 225.544 128.228 226.001 128.685C226.458 129.142 226.818 129.678 227.082 130.293C227.346 130.902 227.478 131.553 227.478 132.244V134.767H230ZM218.029 123.147C218.252 123.147 218.46 123.191 218.653 123.279C218.847 123.361 219.017 123.476 219.163 123.622C219.304 123.769 219.418 123.941 219.506 124.141C219.588 124.334 219.629 124.542 219.629 124.765C219.629 124.987 219.588 125.198 219.506 125.397C219.418 125.591 219.304 125.761 219.163 125.907C219.017 126.048 218.847 126.162 218.653 126.25C218.46 126.332 218.252 126.373 218.029 126.373C217.812 126.373 217.607 126.332 217.414 126.25C217.215 126.162 217.045 126.048 216.904 125.907C216.758 125.761 216.644 125.591 216.562 125.397C216.474 125.198 216.43 124.987 216.43 124.765C216.43 124.542 216.474 124.334 216.562 124.141C216.644 123.941 216.758 123.769 216.904 123.622C217.045 123.476 217.215 123.361 217.414 123.279C217.607 123.191 217.812 123.147 218.029 123.147ZM230 123.561V125.978H220.587V123.561H230ZM222.459 113.497L224.226 115.255C223.979 115.343 223.76 115.463 223.566 115.615C223.367 115.768 223.2 115.94 223.065 116.134C222.931 116.321 222.828 116.526 222.758 116.749C222.688 116.972 222.652 117.2 222.652 117.435C222.652 117.763 222.72 118.073 222.854 118.366C222.989 118.653 223.18 118.905 223.426 119.122C223.666 119.333 223.953 119.5 224.287 119.623C224.621 119.746 224.99 119.808 225.395 119.808C225.723 119.808 226.03 119.746 226.317 119.623C226.604 119.5 226.856 119.333 227.073 119.122C227.29 118.905 227.46 118.653 227.583 118.366C227.706 118.073 227.768 117.763 227.768 117.435C227.768 117.2 227.735 116.975 227.671 116.758C227.606 116.541 227.516 116.339 227.398 116.151C227.275 115.958 227.129 115.788 226.959 115.642C226.783 115.489 226.59 115.366 226.379 115.272L228.146 113.515C228.462 113.737 228.746 113.995 228.998 114.288C229.25 114.575 229.464 114.889 229.64 115.229C229.815 115.562 229.947 115.917 230.035 116.292C230.129 116.661 230.176 117.042 230.176 117.435C230.176 118.097 230.053 118.721 229.807 119.307C229.555 119.887 229.212 120.396 228.778 120.836C228.345 121.27 227.838 121.612 227.258 121.864C226.678 122.116 226.057 122.242 225.395 122.242C224.674 122.242 224 122.116 223.373 121.864C222.746 121.612 222.201 121.27 221.738 120.836C221.27 120.396 220.9 119.887 220.631 119.307C220.361 118.721 220.227 118.097 220.227 117.435C220.227 117.042 220.276 116.658 220.376 116.283C220.476 115.902 220.622 115.542 220.815 115.202C221.003 114.856 221.234 114.54 221.51 114.253C221.785 113.96 222.102 113.708 222.459 113.497ZM230 109.902V112.319H216.843V109.902H225.14L220.604 106.325V103.565L224.524 106.686L230 103.565V106.325L226.581 108.232L228.796 109.902H230ZM227.697 99.1709C227.727 99.0771 227.747 98.9834 227.759 98.8896C227.765 98.7959 227.768 98.7021 227.768 98.6084C227.768 98.374 227.735 98.1484 227.671 97.9316C227.606 97.7148 227.516 97.5127 227.398 97.3252C227.275 97.1318 227.129 96.9619 226.959 96.8154C226.783 96.6631 226.59 96.54 226.379 96.4463L228.146 94.6885C228.462 94.9111 228.746 95.1689 228.998 95.4619C229.25 95.749 229.464 96.0625 229.64 96.4023C229.815 96.7363 229.947 97.0908 230.035 97.4658C230.129 97.835 230.176 98.2158 230.176 98.6084C230.176 99.2705 230.053 99.8945 229.807 100.48C229.561 101.061 229.218 101.57 228.778 102.01C228.339 102.443 227.817 102.786 227.214 103.038C226.604 103.29 225.937 103.416 225.21 103.416C224.466 103.416 223.786 103.29 223.171 103.038C222.556 102.786 222.031 102.443 221.598 102.01C221.164 101.57 220.827 101.061 220.587 100.48C220.347 99.8945 220.227 99.2705 220.227 98.6084C220.227 98.2158 220.273 97.832 220.367 97.457C220.461 97.082 220.596 96.7275 220.771 96.3936C220.947 96.0537 221.164 95.7373 221.422 95.4443C221.674 95.1514 221.958 94.8936 222.274 94.6709L227.697 99.1709ZM222.749 97.9404C222.708 98.0518 222.682 98.1631 222.67 98.2744C222.658 98.3799 222.652 98.4912 222.652 98.6084C222.652 98.9365 222.714 99.2471 222.837 99.54C222.954 99.8271 223.124 100.079 223.347 100.296C223.569 100.507 223.839 100.674 224.155 100.797C224.466 100.92 224.817 100.981 225.21 100.981C225.298 100.981 225.397 100.979 225.509 100.973C225.62 100.961 225.734 100.946 225.852 100.929C225.963 100.905 226.071 100.879 226.177 100.85C226.282 100.82 226.376 100.782 226.458 100.735L222.749 97.9404ZM230 84.4316V85.0117L228.708 85.9434C228.913 86.1719 229.106 86.415 229.288 86.6729C229.464 86.9248 229.619 87.1914 229.754 87.4727C229.883 87.7539 229.985 88.0439 230.062 88.3428C230.138 88.6357 230.176 88.9346 230.176 89.2393C230.176 89.9014 230.053 90.5254 229.807 91.1113C229.555 91.6914 229.209 92.2012 228.77 92.6406C228.324 93.0742 227.8 93.417 227.196 93.6689C226.587 93.9209 225.925 94.0469 225.21 94.0469C224.501 94.0469 223.842 93.9209 223.232 93.6689C222.623 93.417 222.096 93.0742 221.65 92.6406C221.205 92.2012 220.856 91.6914 220.604 91.1113C220.353 90.5254 220.227 89.9014 220.227 89.2393C220.227 89.0283 220.244 88.8115 220.279 88.5889C220.314 88.3604 220.373 88.1406 220.455 87.9297C220.531 87.7129 220.634 87.5107 220.763 87.3232C220.892 87.1357 221.05 86.9775 221.237 86.8486H216.843V84.4316H230ZM225.21 86.8486C224.882 86.8486 224.565 86.9131 224.261 87.042C223.95 87.165 223.678 87.335 223.443 87.5518C223.203 87.7686 223.013 88.0234 222.872 88.3164C222.726 88.6035 222.652 88.9111 222.652 89.2393C222.652 89.5674 222.711 89.8779 222.828 90.1709C222.945 90.458 223.115 90.71 223.338 90.9268C223.555 91.1377 223.821 91.3047 224.138 91.4277C224.454 91.5508 224.812 91.6123 225.21 91.6123C225.556 91.6123 225.884 91.5508 226.194 91.4277C226.505 91.3047 226.777 91.1377 227.012 90.9268C227.246 90.71 227.431 90.458 227.565 90.1709C227.7 89.8779 227.768 89.5674 227.768 89.2393C227.768 88.9111 227.697 88.6035 227.557 88.3164C227.41 88.0234 227.22 87.7686 226.985 87.5518C226.745 87.335 226.473 87.165 226.168 87.042C225.857 86.9131 225.538 86.8486 225.21 86.8486ZM224.964 67.3545C225.661 67.3545 226.317 67.4863 226.933 67.75C227.542 68.0137 228.075 68.374 228.532 68.8311C228.983 69.2881 229.341 69.8242 229.604 70.4395C229.868 71.0488 230 71.7021 230 72.3994C230 73.0967 229.868 73.7529 229.604 74.3682C229.341 74.9775 228.983 75.5107 228.532 75.9678C228.075 76.4189 227.542 76.7764 226.933 77.04C226.317 77.3037 225.661 77.4355 224.964 77.4355H217.396V74.9219H224.964C225.31 74.9219 225.635 74.8574 225.939 74.7285C226.244 74.5938 226.511 74.4121 226.739 74.1836C226.968 73.9551 227.149 73.6885 227.284 73.3838C227.413 73.0732 227.478 72.7451 227.478 72.3994C227.478 72.0537 227.413 71.7285 227.284 71.4238C227.149 71.1133 226.968 70.8438 226.739 70.6152C226.511 70.3867 226.244 70.208 225.939 70.0791C225.635 69.9443 225.31 69.877 224.964 69.877H217.396V67.3545H224.964ZM233.586 63.1797V65.5967H220.587V65.0166L221.721 64.0586C221.516 63.8418 221.322 63.6045 221.141 63.3467C220.959 63.0889 220.804 62.8223 220.675 62.5469C220.54 62.2656 220.435 61.9756 220.358 61.6768C220.282 61.3779 220.244 61.0762 220.244 60.7715C220.244 60.1094 220.364 59.4883 220.604 58.9082C220.839 58.3223 221.173 57.8125 221.606 57.3789C222.04 56.9395 222.564 56.5938 223.18 56.3418C223.789 56.0898 224.466 55.9639 225.21 55.9639C225.983 55.9639 226.681 56.0898 227.302 56.3418C227.917 56.5938 228.441 56.9395 228.875 57.3789C229.303 57.8125 229.631 58.3223 229.859 58.9082C230.088 59.4883 230.202 60.1094 230.202 60.7715C230.202 60.9824 230.179 61.1934 230.132 61.4043C230.085 61.6094 230.023 61.8145 229.947 62.0195C229.865 62.2188 229.774 62.418 229.675 62.6172C229.575 62.8105 229.473 62.998 229.367 63.1797H233.586ZM225.21 58.3721C224.812 58.3721 224.454 58.4365 224.138 58.5654C223.821 58.6885 223.555 58.8584 223.338 59.0752C223.115 59.292 222.945 59.5469 222.828 59.8398C222.711 60.1328 222.652 60.4434 222.652 60.7715C222.652 61.0996 222.711 61.4102 222.828 61.7031C222.945 61.9902 223.115 62.2422 223.338 62.459C223.555 62.6758 223.821 62.8486 224.138 62.9775C224.454 63.1006 224.812 63.1621 225.21 63.1621C225.591 63.1621 225.939 63.1006 226.256 62.9775C226.572 62.8486 226.842 62.6758 227.064 62.459C227.287 62.2422 227.46 61.9902 227.583 61.7031C227.706 61.4102 227.768 61.0996 227.768 60.7715C227.768 60.4434 227.706 60.1328 227.583 59.8398C227.46 59.5469 227.287 59.292 227.064 59.0752C226.842 58.8584 226.572 58.6885 226.256 58.5654C225.939 58.4365 225.591 58.3721 225.21 58.3721Z" fill="white"/>
</svg>