<svg width="229" height="180" viewBox="0 0 229 180" fill="none" xmlns="http://www.w3.org/2000/svg">
<path d="M57.7969 116H47.707V75.6758H42.6797V65.5859H57.7969V116ZM102.516 100.145C102.516 102.605 102.082 104.82 101.215 106.789C100.348 108.758 99.1875 110.422 97.7344 111.781C96.2812 113.141 94.5938 114.184 92.6719 114.91C90.7734 115.637 88.7812 116 86.6953 116H66.375V105.91H86.6953C87.375 105.91 88.0547 105.805 88.7344 105.594C89.4375 105.383 90.0586 105.043 90.5977 104.574C91.1602 104.105 91.6055 103.508 91.9336 102.781C92.2852 102.055 92.4609 101.176 92.4609 100.145C92.4609 99.207 92.2852 98.3867 91.9336 97.6836C91.6055 96.957 91.1602 96.3594 90.5977 95.8906C90.0586 95.3984 89.4375 95.0352 88.7344 94.8008C88.0547 94.543 87.375 94.4141 86.6953 94.4141H66.375L69.3281 65.5859H100.441V75.6758H78.3984L77.4844 84.3242H86.6953C88.7812 84.3242 90.7734 84.6875 92.6719 85.4141C94.5938 86.1406 96.2812 87.1953 97.7344 88.5781C99.1875 89.9375 100.348 91.6016 101.215 93.5703C102.082 95.5156 102.516 97.707 102.516 100.145ZM127.371 104.926H117.773V95.3281H107.789V85.7656H117.773V75.3945H127.371V85.7656H137.32V95.3281H127.371V104.926Z" fill="white"/>
<path d="M177.5 90C177.5 138.325 138.325 177.5 90 177.5C41.6751 177.5 2.5 138.325 2.5 90C2.5 41.6751 41.6751 2.5 90 2.5C138.325 2.5 177.5 41.6751 177.5 90Z" stroke="white" stroke-width="5"/>
<path d="M203 126.717V129.23H199.054C198.913 129.787 198.688 130.3 198.377 130.769C198.066 131.231 197.697 131.63 197.27 131.964C196.836 132.298 196.358 132.559 195.837 132.746C195.31 132.928 194.756 133.019 194.176 133.019H190.396V130.496H194.176C194.521 130.496 194.85 130.432 195.16 130.303C195.465 130.168 195.731 129.986 195.96 129.758C196.188 129.529 196.37 129.263 196.505 128.958C196.634 128.647 196.698 128.319 196.698 127.974C196.698 127.628 196.634 127.303 196.505 126.998C196.37 126.688 196.188 126.418 195.96 126.189C195.731 125.961 195.465 125.782 195.16 125.653C194.85 125.519 194.521 125.451 194.176 125.451H190.396V122.938H194.176C194.756 122.938 195.31 123.031 195.837 123.219C196.358 123.4 196.836 123.658 197.27 123.992C197.697 124.326 198.066 124.725 198.377 125.188C198.688 125.65 198.913 126.16 199.054 126.717H203ZM200.697 118.104C200.727 118.01 200.747 117.916 200.759 117.822C200.765 117.729 200.768 117.635 200.768 117.541C200.768 117.307 200.735 117.081 200.671 116.864C200.606 116.647 200.516 116.445 200.398 116.258C200.275 116.064 200.129 115.895 199.959 115.748C199.783 115.596 199.59 115.473 199.379 115.379L201.146 113.621C201.462 113.844 201.746 114.102 201.998 114.395C202.25 114.682 202.464 114.995 202.64 115.335C202.815 115.669 202.947 116.023 203.035 116.398C203.129 116.768 203.176 117.148 203.176 117.541C203.176 118.203 203.053 118.827 202.807 119.413C202.561 119.993 202.218 120.503 201.778 120.942C201.339 121.376 200.817 121.719 200.214 121.971C199.604 122.223 198.937 122.349 198.21 122.349C197.466 122.349 196.786 122.223 196.171 121.971C195.556 121.719 195.031 121.376 194.598 120.942C194.164 120.503 193.827 119.993 193.587 119.413C193.347 118.827 193.227 118.203 193.227 117.541C193.227 117.148 193.273 116.765 193.367 116.39C193.461 116.015 193.596 115.66 193.771 115.326C193.947 114.986 194.164 114.67 194.422 114.377C194.674 114.084 194.958 113.826 195.274 113.604L200.697 118.104ZM195.749 116.873C195.708 116.984 195.682 117.096 195.67 117.207C195.658 117.312 195.652 117.424 195.652 117.541C195.652 117.869 195.714 118.18 195.837 118.473C195.954 118.76 196.124 119.012 196.347 119.229C196.569 119.439 196.839 119.606 197.155 119.729C197.466 119.853 197.817 119.914 198.21 119.914C198.298 119.914 198.397 119.911 198.509 119.905C198.62 119.894 198.734 119.879 198.852 119.861C198.963 119.838 199.071 119.812 199.177 119.782C199.282 119.753 199.376 119.715 199.458 119.668L195.749 116.873ZM203 103.347V103.927L201.708 104.858C201.913 105.087 202.106 105.33 202.288 105.588C202.464 105.84 202.619 106.106 202.754 106.388C202.883 106.669 202.985 106.959 203.062 107.258C203.138 107.551 203.176 107.85 203.176 108.154C203.176 108.816 203.064 109.44 202.842 110.026C202.619 110.606 202.297 111.116 201.875 111.556C201.447 111.989 200.926 112.332 200.311 112.584C199.695 112.836 198.995 112.962 198.21 112.962C197.478 112.962 196.807 112.836 196.197 112.584C195.582 112.332 195.055 111.989 194.615 111.556C194.176 111.116 193.836 110.606 193.596 110.026C193.35 109.44 193.227 108.816 193.227 108.154C193.227 107.85 193.265 107.548 193.341 107.249C193.417 106.95 193.522 106.66 193.657 106.379C193.792 106.098 193.95 105.831 194.132 105.579C194.313 105.321 194.51 105.081 194.721 104.858L193.604 103.927V103.347H203ZM198.21 105.764C197.882 105.764 197.565 105.828 197.261 105.957C196.95 106.08 196.678 106.25 196.443 106.467C196.203 106.684 196.013 106.938 195.872 107.231C195.726 107.519 195.652 107.826 195.652 108.154C195.652 108.482 195.708 108.793 195.819 109.086C195.931 109.373 196.095 109.625 196.312 109.842C196.528 110.053 196.798 110.22 197.12 110.343C197.437 110.466 197.8 110.527 198.21 110.527C198.62 110.527 198.986 110.466 199.309 110.343C199.625 110.22 199.892 110.053 200.108 109.842C200.325 109.625 200.489 109.373 200.601 109.086C200.712 108.793 200.768 108.482 200.768 108.154C200.768 107.826 200.697 107.519 200.557 107.231C200.41 106.938 200.22 106.684 199.985 106.467C199.745 106.25 199.473 106.08 199.168 105.957C198.857 105.828 198.538 105.764 198.21 105.764ZM203 99.1104V101.51H193.587V100.93L194.703 100.139C194.352 99.752 194.082 99.3125 193.895 98.8203C193.701 98.3281 193.604 97.8184 193.604 97.291V95.1729H195.995V97.291C195.995 97.543 196.042 97.7803 196.136 98.0029C196.229 98.2256 196.358 98.4189 196.522 98.583C196.687 98.7471 196.88 98.876 197.103 98.9697C197.325 99.0635 197.562 99.1104 197.814 99.1104H203ZM203 88.9941V94.4785H200.609V88.9941C200.609 88.8301 200.551 88.6895 200.434 88.5723C200.316 88.4551 200.176 88.3965 200.012 88.3965C199.842 88.3965 199.73 88.4551 199.678 88.5723C199.625 88.6895 199.599 88.8301 199.599 88.9941V91.4902C199.599 91.9062 199.52 92.2959 199.361 92.6592C199.203 93.0225 198.989 93.3389 198.72 93.6084C198.444 93.8779 198.125 94.0918 197.762 94.25C197.398 94.4023 197.009 94.4785 196.593 94.4785C196.177 94.4785 195.787 94.4023 195.424 94.25C195.061 94.0918 194.744 93.8779 194.475 93.6084C194.205 93.3389 193.994 93.0225 193.842 92.6592C193.684 92.2959 193.604 91.9062 193.604 91.4902V86.6299H195.995V91.4902C195.995 91.6543 196.054 91.7949 196.171 91.9121C196.288 92.0293 196.429 92.0879 196.593 92.0879C196.763 92.0879 196.909 92.0293 197.032 91.9121C197.149 91.7949 197.208 91.6543 197.208 91.4902V88.9941C197.208 88.584 197.278 88.1973 197.419 87.834C197.554 87.4707 197.744 87.1543 197.99 86.8848C198.236 86.6152 198.532 86.4014 198.878 86.2432C199.224 86.085 199.602 86.0059 200.012 86.0059C200.428 86.0059 200.817 86.085 201.181 86.2432C201.538 86.4014 201.854 86.6152 202.13 86.8848C202.399 87.1543 202.613 87.4707 202.771 87.834C202.924 88.1973 203 88.584 203 88.9941ZM196.751 67.0742C197.349 67.0742 197.926 67.1533 198.482 67.3115C199.033 67.4639 199.552 67.6807 200.038 67.9619C200.519 68.2432 200.958 68.583 201.356 68.9814C201.755 69.3799 202.098 69.8193 202.385 70.2998C202.666 70.7803 202.883 71.2988 203.035 71.8555C203.193 72.4121 203.272 72.9893 203.272 73.5869C203.272 74.1846 203.193 74.7617 203.035 75.3184C202.883 75.8691 202.666 76.3877 202.385 76.874C202.098 77.3545 201.755 77.7939 201.356 78.1924C200.958 78.5908 200.519 78.9336 200.038 79.2207C199.552 79.502 199.033 79.7217 198.482 79.8799C197.926 80.0322 197.349 80.1084 196.751 80.1084C196.153 80.1084 195.576 80.0322 195.02 79.8799C194.463 79.7217 193.944 79.502 193.464 79.2207C192.983 78.9336 192.544 78.5908 192.146 78.1924C191.747 77.7939 191.407 77.3545 191.126 76.874C190.845 76.3877 190.628 75.8691 190.476 75.3184C190.317 74.7617 190.238 74.1846 190.238 73.5869C190.238 72.9893 190.317 72.4121 190.476 71.8555C190.628 71.2988 190.845 70.7803 191.126 70.2998C191.407 69.8193 191.747 69.3799 192.146 68.9814C192.544 68.583 192.983 68.2432 193.464 67.9619C193.944 67.6807 194.463 67.4639 195.02 67.3115C195.576 67.1533 196.153 67.0742 196.751 67.0742ZM196.751 69.5791C196.2 69.5791 195.682 69.6846 195.195 69.8955C194.703 70.1064 194.278 70.3936 193.921 70.7568C193.558 71.1143 193.271 71.5391 193.06 72.0312C192.849 72.5176 192.743 73.0361 192.743 73.5869C192.743 74.1436 192.849 74.665 193.06 75.1514C193.271 75.6377 193.558 76.0625 193.921 76.4258C194.278 76.7891 194.703 77.0762 195.195 77.2871C195.682 77.498 196.2 77.6035 196.751 77.6035C197.302 77.6035 197.82 77.498 198.307 77.2871C198.787 77.0762 199.209 76.7891 199.572 76.4258C199.936 76.0625 200.223 75.6377 200.434 75.1514C200.645 74.665 200.75 74.1436 200.75 73.5869C200.75 73.0361 200.645 72.5176 200.434 72.0312C200.223 71.5391 199.936 71.1143 199.572 70.7568C199.209 70.3936 198.787 70.1064 198.307 69.8955C197.82 69.6846 197.302 69.5791 196.751 69.5791ZM203 62.6182V65.0176H195.978V66.1865H193.587V65.0176H193.139C192.559 65.0176 192.014 64.9092 191.504 64.6924C190.994 64.4697 190.552 64.168 190.177 63.7871C189.796 63.4004 189.497 62.9521 189.28 62.4424C189.058 61.9326 188.946 61.3877 188.946 60.8076V59.0059H191.337V60.8076C191.337 61.0654 191.384 61.3057 191.478 61.5283C191.565 61.7451 191.691 61.9355 191.855 62.0996C192.014 62.2578 192.204 62.3838 192.427 62.4775C192.644 62.5713 192.881 62.6182 193.139 62.6182H193.587V59.6738H195.978V62.6182H203ZM225 131.876V140.516H212.396V131.876H214.919V137.993H217.441V133.854H219.964V137.993H222.478V131.876H225ZM225 121.698V124.634L222.117 126.506L225 128.396V131.331L220.175 127.895L215.534 131.331V128.396L218.232 126.506L215.534 124.634V121.698L220.175 125.144L225 121.698ZM228.586 118.42V120.837H215.587V120.257L216.721 119.299C216.516 119.082 216.322 118.845 216.141 118.587C215.959 118.329 215.804 118.062 215.675 117.787C215.54 117.506 215.435 117.216 215.358 116.917C215.282 116.618 215.244 116.316 215.244 116.012C215.244 115.35 215.364 114.729 215.604 114.148C215.839 113.562 216.173 113.053 216.606 112.619C217.04 112.18 217.564 111.834 218.18 111.582C218.789 111.33 219.466 111.204 220.21 111.204C220.983 111.204 221.681 111.33 222.302 111.582C222.917 111.834 223.441 112.18 223.875 112.619C224.303 113.053 224.631 113.562 224.859 114.148C225.088 114.729 225.202 115.35 225.202 116.012C225.202 116.223 225.179 116.434 225.132 116.645C225.085 116.85 225.023 117.055 224.947 117.26C224.865 117.459 224.774 117.658 224.675 117.857C224.575 118.051 224.473 118.238 224.367 118.42H228.586ZM220.21 113.612C219.812 113.612 219.454 113.677 219.138 113.806C218.821 113.929 218.555 114.099 218.338 114.315C218.115 114.532 217.945 114.787 217.828 115.08C217.711 115.373 217.652 115.684 217.652 116.012C217.652 116.34 217.711 116.65 217.828 116.943C217.945 117.23 218.115 117.482 218.338 117.699C218.555 117.916 218.821 118.089 219.138 118.218C219.454 118.341 219.812 118.402 220.21 118.402C220.591 118.402 220.939 118.341 221.256 118.218C221.572 118.089 221.842 117.916 222.064 117.699C222.287 117.482 222.46 117.23 222.583 116.943C222.706 116.65 222.768 116.34 222.768 116.012C222.768 115.684 222.706 115.373 222.583 115.08C222.46 114.787 222.287 114.532 222.064 114.315C221.842 114.099 221.572 113.929 221.256 113.806C220.939 113.677 220.591 113.612 220.21 113.612ZM222.697 106.124C222.727 106.03 222.747 105.937 222.759 105.843C222.765 105.749 222.768 105.655 222.768 105.562C222.768 105.327 222.735 105.102 222.671 104.885C222.606 104.668 222.516 104.466 222.398 104.278C222.275 104.085 222.129 103.915 221.959 103.769C221.783 103.616 221.59 103.493 221.379 103.399L223.146 101.642C223.462 101.864 223.746 102.122 223.998 102.415C224.25 102.702 224.464 103.016 224.64 103.355C224.815 103.689 224.947 104.044 225.035 104.419C225.129 104.788 225.176 105.169 225.176 105.562C225.176 106.224 225.053 106.848 224.807 107.434C224.561 108.014 224.218 108.523 223.778 108.963C223.339 109.396 222.817 109.739 222.214 109.991C221.604 110.243 220.937 110.369 220.21 110.369C219.466 110.369 218.786 110.243 218.171 109.991C217.556 109.739 217.031 109.396 216.598 108.963C216.164 108.523 215.827 108.014 215.587 107.434C215.347 106.848 215.227 106.224 215.227 105.562C215.227 105.169 215.273 104.785 215.367 104.41C215.461 104.035 215.596 103.681 215.771 103.347C215.947 103.007 216.164 102.69 216.422 102.397C216.674 102.104 216.958 101.847 217.274 101.624L222.697 106.124ZM217.749 104.894C217.708 105.005 217.682 105.116 217.67 105.228C217.658 105.333 217.652 105.444 217.652 105.562C217.652 105.89 217.714 106.2 217.837 106.493C217.954 106.78 218.124 107.032 218.347 107.249C218.569 107.46 218.839 107.627 219.155 107.75C219.466 107.873 219.817 107.935 220.21 107.935C220.298 107.935 220.397 107.932 220.509 107.926C220.62 107.914 220.734 107.899 220.852 107.882C220.963 107.858 221.071 107.832 221.177 107.803C221.282 107.773 221.376 107.735 221.458 107.688L217.749 104.894ZM225 98.0117V100.411H215.587V99.8311L216.703 99.04C216.352 98.6533 216.082 98.2139 215.895 97.7217C215.701 97.2295 215.604 96.7197 215.604 96.1924V94.0742H217.995V96.1924C217.995 96.4443 218.042 96.6816 218.136 96.9043C218.229 97.127 218.358 97.3203 218.522 97.4844C218.687 97.6484 218.88 97.7773 219.103 97.8711C219.325 97.9648 219.562 98.0117 219.814 98.0117H225ZM213.029 90.1279C213.252 90.1279 213.46 90.1719 213.653 90.2598C213.847 90.3418 214.017 90.4561 214.163 90.6025C214.304 90.749 214.418 90.9219 214.506 91.1211C214.588 91.3145 214.629 91.5225 214.629 91.7451C214.629 91.9678 214.588 92.1787 214.506 92.3779C214.418 92.5713 214.304 92.7412 214.163 92.8877C214.017 93.0283 213.847 93.1426 213.653 93.2305C213.46 93.3125 213.252 93.3535 213.029 93.3535C212.812 93.3535 212.607 93.3125 212.414 93.2305C212.215 93.1426 212.045 93.0283 211.904 92.8877C211.758 92.7412 211.644 92.5713 211.562 92.3779C211.474 92.1787 211.43 91.9678 211.43 91.7451C211.43 91.5225 211.474 91.3145 211.562 91.1211C211.644 90.9219 211.758 90.749 211.904 90.6025C212.045 90.4561 212.215 90.3418 212.414 90.2598C212.607 90.1719 212.812 90.1279 213.029 90.1279ZM225 90.541V92.958H215.587V90.541H225ZM222.697 84.96C222.727 84.8662 222.747 84.7725 222.759 84.6787C222.765 84.585 222.768 84.4912 222.768 84.3975C222.768 84.1631 222.735 83.9375 222.671 83.7207C222.606 83.5039 222.516 83.3018 222.398 83.1143C222.275 82.9209 222.129 82.751 221.959 82.6045C221.783 82.4521 221.59 82.3291 221.379 82.2354L223.146 80.4775C223.462 80.7002 223.746 80.958 223.998 81.251C224.25 81.5381 224.464 81.8516 224.64 82.1914C224.815 82.5254 224.947 82.8799 225.035 83.2549C225.129 83.624 225.176 84.0049 225.176 84.3975C225.176 85.0596 225.053 85.6836 224.807 86.2695C224.561 86.8496 224.218 87.3594 223.778 87.7988C223.339 88.2324 222.817 88.5752 222.214 88.8271C221.604 89.0791 220.937 89.2051 220.21 89.2051C219.466 89.2051 218.786 89.0791 218.171 88.8271C217.556 88.5752 217.031 88.2324 216.598 87.7988C216.164 87.3594 215.827 86.8496 215.587 86.2695C215.347 85.6836 215.227 85.0596 215.227 84.3975C215.227 84.0049 215.273 83.6211 215.367 83.2461C215.461 82.8711 215.596 82.5166 215.771 82.1826C215.947 81.8428 216.164 81.5264 216.422 81.2334C216.674 80.9404 216.958 80.6826 217.274 80.46L222.697 84.96ZM217.749 83.7295C217.708 83.8408 217.682 83.9521 217.67 84.0635C217.658 84.1689 217.652 84.2803 217.652 84.3975C217.652 84.7256 217.714 85.0361 217.837 85.3291C217.954 85.6162 218.124 85.8682 218.347 86.085C218.569 86.2959 218.839 86.4629 219.155 86.5859C219.466 86.709 219.817 86.7705 220.21 86.7705C220.298 86.7705 220.397 86.7676 220.509 86.7617C220.62 86.75 220.734 86.7354 220.852 86.7178C220.963 86.6943 221.071 86.668 221.177 86.6387C221.282 86.6094 221.376 86.5713 221.458 86.5244L217.749 83.7295ZM225 76.8477V79.2471H215.587V78.667L216.501 77.876C216.149 77.4893 215.88 77.0527 215.692 76.5664C215.499 76.0742 215.402 75.5615 215.402 75.0283C215.402 74.4541 215.514 73.9121 215.736 73.4023C215.953 72.8926 216.255 72.4473 216.642 72.0664C217.022 71.6855 217.471 71.3867 217.986 71.1699C218.496 70.9473 219.041 70.8359 219.621 70.8359H225V73.2354H219.621C219.375 73.2354 219.144 73.2822 218.927 73.376C218.704 73.4697 218.511 73.5986 218.347 73.7627C218.183 73.9268 218.054 74.1172 217.96 74.334C217.866 74.5508 217.819 74.7822 217.819 75.0283C217.819 75.2803 217.866 75.5176 217.96 75.7402C218.054 75.9629 218.183 76.1562 218.347 76.3203C218.511 76.4844 218.704 76.6133 218.927 76.707C219.144 76.8008 219.375 76.8477 219.621 76.8477H225ZM217.459 60.8955L219.226 62.6533C218.979 62.7412 218.76 62.8613 218.566 63.0137C218.367 63.166 218.2 63.3389 218.065 63.5322C217.931 63.7197 217.828 63.9248 217.758 64.1475C217.688 64.3701 217.652 64.5986 217.652 64.833C217.652 65.1611 217.72 65.4717 217.854 65.7646C217.989 66.0518 218.18 66.3037 218.426 66.5205C218.666 66.7314 218.953 66.8984 219.287 67.0215C219.621 67.1445 219.99 67.2061 220.395 67.2061C220.723 67.2061 221.03 67.1445 221.317 67.0215C221.604 66.8984 221.856 66.7314 222.073 66.5205C222.29 66.3037 222.46 66.0518 222.583 65.7646C222.706 65.4717 222.768 65.1611 222.768 64.833C222.768 64.5986 222.735 64.373 222.671 64.1562C222.606 63.9395 222.516 63.7373 222.398 63.5498C222.275 63.3564 222.129 63.1865 221.959 63.04C221.783 62.8877 221.59 62.7646 221.379 62.6709L223.146 60.9131C223.462 61.1357 223.746 61.3936 223.998 61.6865C224.25 61.9736 224.464 62.2871 224.64 62.627C224.815 62.9609 224.947 63.3154 225.035 63.6904C225.129 64.0596 225.176 64.4404 225.176 64.833C225.176 65.4951 225.053 66.1191 224.807 66.7051C224.555 67.2852 224.212 67.7949 223.778 68.2344C223.345 68.668 222.838 69.0107 222.258 69.2627C221.678 69.5146 221.057 69.6406 220.395 69.6406C219.674 69.6406 219 69.5146 218.373 69.2627C217.746 69.0107 217.201 68.668 216.738 68.2344C216.27 67.7949 215.9 67.2852 215.631 66.7051C215.361 66.1191 215.227 65.4951 215.227 64.833C215.227 64.4404 215.276 64.0566 215.376 63.6816C215.476 63.3008 215.622 62.9404 215.815 62.6006C216.003 62.2549 216.234 61.9385 216.51 61.6514C216.785 61.3584 217.102 61.1064 217.459 60.8955ZM222.697 56.1143C222.727 56.0205 222.747 55.9268 222.759 55.833C222.765 55.7393 222.768 55.6455 222.768 55.5518C222.768 55.3174 222.735 55.0918 222.671 54.875C222.606 54.6582 222.516 54.4561 222.398 54.2686C222.275 54.0752 222.129 53.9053 221.959 53.7588C221.783 53.6064 221.59 53.4834 221.379 53.3896L223.146 51.6318C223.462 51.8545 223.746 52.1123 223.998 52.4053C224.25 52.6924 224.464 53.0059 224.64 53.3457C224.815 53.6797 224.947 54.0342 225.035 54.4092C225.129 54.7783 225.176 55.1592 225.176 55.5518C225.176 56.2139 225.053 56.8379 224.807 57.4238C224.561 58.0039 224.218 58.5137 223.778 58.9531C223.339 59.3867 222.817 59.7295 222.214 59.9814C221.604 60.2334 220.937 60.3594 220.21 60.3594C219.466 60.3594 218.786 60.2334 218.171 59.9814C217.556 59.7295 217.031 59.3867 216.598 58.9531C216.164 58.5137 215.827 58.0039 215.587 57.4238C215.347 56.8379 215.227 56.2139 215.227 55.5518C215.227 55.1592 215.273 54.7754 215.367 54.4004C215.461 54.0254 215.596 53.6709 215.771 53.3369C215.947 52.9971 216.164 52.6807 216.422 52.3877C216.674 52.0947 216.958 51.8369 217.274 51.6143L222.697 56.1143ZM217.749 54.8838C217.708 54.9951 217.682 55.1064 217.67 55.2178C217.658 55.3232 217.652 55.4346 217.652 55.5518C217.652 55.8799 217.714 56.1904 217.837 56.4834C217.954 56.7705 218.124 57.0225 218.347 57.2393C218.569 57.4502 218.839 57.6172 219.155 57.7402C219.466 57.8633 219.817 57.9248 220.21 57.9248C220.298 57.9248 220.397 57.9219 220.509 57.916C220.62 57.9043 220.734 57.8896 220.852 57.8721C220.963 57.8486 221.071 57.8223 221.177 57.793C221.282 57.7637 221.376 57.7256 221.458 57.6787L217.749 54.8838Z" fill="white"/>
</svg>