<svg width="16" height="18" viewBox="0 0 16 18" fill="none" xmlns="http://www.w3.org/2000/svg">
<path d="M3.6087 5.02403C3.51142 4.93445 3.43423 4.82802 3.38156 4.71082C3.3289 4.59363 3.30179 4.46798 3.30179 4.34108C3.30179 4.21419 3.3289 4.08854 3.38156 3.97134C3.43423 3.85415 3.51142 3.74771 3.6087 3.65814L7.26087 0.28358C7.35781 0.193695 7.47301 0.122376 7.59984 0.0737129C7.72668 0.0250498 7.86266 0 8 0C8.13734 0 8.27332 0.0250498 8.40016 0.0737129C8.527 0.122376 8.64219 0.193695 8.73913 0.28358L12.3913 3.65814C12.4886 3.74771 12.5658 3.85415 12.6184 3.97134C12.6711 4.08854 12.6982 4.21419 12.6982 4.34108C12.6982 4.46798 12.6711 4.59363 12.6184 4.71082C12.5658 4.82802 12.4886 4.93445 12.3913 5.02403C12.1944 5.20361 11.9289 5.30431 11.6522 5.30431C11.3755 5.30431 11.11 5.20361 10.913 5.02403L9.04348 3.29658V9.96534C9.04348 10.2211 8.93354 10.4663 8.73785 10.6471C8.54216 10.8279 8.27675 10.9295 8 10.9295C7.72325 10.9295 7.45784 10.8279 7.26215 10.6471C7.06646 10.4663 6.95652 10.2211 6.95652 9.96534V3.29658L5.08696 5.02403C4.99001 5.11391 4.87482 5.18523 4.74798 5.2339C4.62115 5.28256 4.48516 5.30761 4.34783 5.30761C4.21049 5.30761 4.0745 5.28256 3.94767 5.2339C3.82083 5.18523 3.70564 5.11391 3.6087 5.02403ZM14.2609 6.75148H12.1739C11.8972 6.75148 11.6318 6.85306 11.4361 7.03388C11.2404 7.21469 11.1304 7.45993 11.1304 7.71564C11.1304 7.97135 11.2404 8.21659 11.4361 8.3974C11.6318 8.57822 11.8972 8.6798 12.1739 8.6798H13.913V16.0717H2.08696V8.6798H3.82609C4.10283 8.6798 4.36825 8.57822 4.56394 8.3974C4.75963 8.21659 4.86957 7.97135 4.86957 7.71564C4.86957 7.45993 4.75963 7.21469 4.56394 7.03388C4.36825 6.85306 4.10283 6.75148 3.82609 6.75148H1.73913C1.27859 6.75359 0.837561 6.92357 0.511905 7.22447C0.186249 7.52537 0.00228561 7.93288 0 8.35841V16.3931C0.00228561 16.8186 0.186249 17.2261 0.511905 17.527C0.837561 17.8279 1.27859 17.9979 1.73913 18H14.2609C14.7214 17.9979 15.1624 17.8279 15.4881 17.527C15.8138 17.2261 15.9977 16.8186 16 16.3931V8.35841C15.9977 7.93288 15.8138 7.52537 15.4881 7.22447C15.1624 6.92357 14.7214 6.75359 14.2609 6.75148Z" fill="black"/>
</svg>
