<svg width="100" height="100" viewBox="0 0 100 100" fill="none" xmlns="http://www.w3.org/2000/svg">
<path d="M50 16.6666C46.1322 16.6666 42.4229 18.2031 39.688 20.938C36.9531 23.6729 35.4166 27.3822 35.4166 31.25H43.75C43.75 29.5924 44.4085 28.0026 45.5806 26.8305C46.7527 25.6584 48.3424 25 50 25C51.6576 25 53.2473 25.6584 54.4194 26.8305C55.5915 28.0026 56.25 29.5924 56.25 31.25C56.25 32.9076 55.5915 34.4973 54.4194 35.6694C53.2473 36.8415 51.6576 37.5 50 37.5C47.7083 37.5 45.8333 39.375 45.8333 41.6666V48.9583L9.99998 75.8333C9.30037 76.358 8.78359 77.0895 8.52284 77.9243C8.26209 78.759 8.27059 79.6546 8.54713 80.4842C8.82368 81.3139 9.35425 82.0355 10.0637 82.5468C10.7731 83.0581 11.6255 83.3333 12.5 83.3333H87.5C88.3745 83.3333 89.2268 83.0581 89.9363 82.5468C90.6457 82.0355 91.1763 81.3139 91.4528 80.4842C91.7294 79.6546 91.7379 78.759 91.4771 77.9243C91.2164 77.0895 90.6996 76.358 90 75.8333L54.1666 48.9583V45.2083C57.1735 44.3118 59.811 42.4695 61.6876 39.9549C63.5641 37.4403 64.5796 34.3876 64.5833 31.25C64.5833 27.3822 63.0469 23.6729 60.312 20.938C57.577 18.2031 53.8677 16.6666 50 16.6666ZM50 56.25L75 75H25L50 56.25Z" fill="white"/>
</svg>
