<svg width="110" height="110" viewBox="0 0 110 110" fill="none" xmlns="http://www.w3.org/2000/svg">
<path d="M9.16663 82.5V68.75C9.16663 63.7083 10.9618 59.3924 14.552 55.8021C18.1423 52.2118 22.4583 50.4167 27.5 50.4167H68.75V45.8333C68.75 44.5347 68.3115 43.4454 67.4345 42.5654C66.5545 41.6885 65.4652 41.25 64.1666 41.25H45.8333C44.5347 41.25 43.4469 41.6885 42.57 42.5654C41.69 43.4454 41.25 44.5347 41.25 45.8333H32.0833C32.0833 42.0139 33.4201 38.7674 36.0937 36.0938C38.7673 33.4201 42.0139 32.0833 45.8333 32.0833H64.1666C67.9861 32.0833 71.2326 33.4201 73.9062 36.0938C76.5798 38.7674 77.9166 42.0139 77.9166 45.8333V64.1667C79.2152 64.1667 80.303 63.7267 81.18 62.8467C82.06 61.9697 82.5 60.8819 82.5 59.5833V41.25C82.5 37.4306 83.8368 34.184 86.5104 31.5104C89.184 28.8368 92.4305 27.5 96.25 27.5H100.833V36.6667H96.25C94.9514 36.6667 93.8636 37.1051 92.9866 37.9821C92.1066 38.8621 91.6666 39.9514 91.6666 41.25V59.5833C91.6666 63.4028 90.3298 66.6493 87.6562 69.3229C84.9826 71.9965 81.7361 73.3333 77.9166 73.3333V82.5H9.16663Z" fill="white"/>
</svg>
