<svg width="25" height="25" viewBox="0 0 50 50" fill="none" xmlns="http://www.w3.org/2000/svg">
<path d="M19.4271 33.9062C19.0451 33.4549 18.8542 32.9424 18.8542 32.3687C18.8542 31.7965 19.0451 31.3194 19.4271 30.9375L23.2812 27.0833H8.33333C7.74306 27.0833 7.24861 26.8833 6.85 26.4833C6.45 26.0847 6.25 25.5903 6.25 25C6.25 24.4097 6.45 23.9146 6.85 23.5146C7.24861 23.116 7.74306 22.9167 8.33333 22.9167H23.2812L19.4271 19.0625C19.0104 18.6458 18.8021 18.1514 18.8021 17.5792C18.8021 17.0056 19.0104 16.5104 19.4271 16.0937C19.809 15.6771 20.2868 15.4688 20.8604 15.4688C21.4326 15.4688 21.9097 15.6597 22.2917 16.0417L29.7917 23.5417C30 23.75 30.1479 23.9757 30.2354 24.2188C30.3215 24.4618 30.3646 24.7222 30.3646 25C30.3646 25.2778 30.3215 25.5382 30.2354 25.7812C30.1479 26.0243 30 26.25 29.7917 26.4583L22.2917 33.9583C21.875 34.375 21.3889 34.566 20.8333 34.5312C20.2778 34.4965 19.809 34.2882 19.4271 33.9062ZM27.0833 43.75C26.4931 43.75 25.9986 43.55 25.6 43.15C25.2 42.7514 25 42.2569 25 41.6667C25 41.0764 25.2 40.5819 25.6 40.1833C25.9986 39.7833 26.4931 39.5833 27.0833 39.5833H39.5833V10.4167H27.0833C26.4931 10.4167 25.9986 10.2167 25.6 9.81667C25.2 9.41806 25 8.92361 25 8.33333C25 7.74306 25.2 7.24792 25.6 6.84792C25.9986 6.44931 26.4931 6.25 27.0833 6.25H39.5833C40.7292 6.25 41.7104 6.65764 42.5271 7.47292C43.3424 8.28958 43.75 9.27083 43.75 10.4167V39.5833C43.75 40.7292 43.3424 41.7104 42.5271 42.5271C41.7104 43.3424 40.7292 43.75 39.5833 43.75H27.0833Z" fill="#FFFDFD"/>
</svg>
