<svg width="20" height="25" viewBox="0 0 20 25" fill="none" xmlns="http://www.w3.org/2000/svg">
<path d="M2 22.2081H18V24.5869H2V22.2081ZM19 4.36678C18.7348 4.36678 18.4804 4.4921 18.2929 4.71516C18.1054 4.93822 18 5.24075 18 5.5562C18.0001 5.69146 18.0219 5.82546 18.064 5.95109C18.1052 6.07257 18.1615 6.18603 18.231 6.2877L16.111 8.3002L13.994 10.3139L12.24 6.6588L10.488 3.0049C10.6383 2.90339 10.7651 2.75913 10.857 2.58503C10.9508 2.40589 11.0004 2.19899 11 1.98794C11 1.67249 10.8946 1.36996 10.7071 1.1469C10.5196 0.923836 10.2652 0.798523 10 0.798523C9.73478 0.798523 9.48043 0.923836 9.29289 1.1469C9.10536 1.36996 9 1.67249 9 1.98794C8.99965 2.19899 9.0492 2.40589 9.143 2.58503C9.23495 2.7591 9.36173 2.90335 9.512 3.0049L7.757 6.6588L6.002 10.3139L3.886 8.30139L1.769 6.2877C1.83847 6.18603 1.89476 6.07257 1.936 5.95109C1.97814 5.82546 1.99986 5.69146 2 5.5562C2 5.32096 1.94135 5.091 1.83147 4.8954C1.72159 4.6998 1.56541 4.54735 1.38268 4.45732C1.19996 4.3673 0.998891 4.34374 0.80491 4.38964C0.610929 4.43553 0.432746 4.54881 0.292894 4.71516C0.153041 4.8815 0.0578004 5.09344 0.0192152 5.32416C-0.0193701 5.55489 0.000433281 5.79404 0.0761209 6.01138C0.151809 6.22871 0.279981 6.41448 0.44443 6.54517C0.60888 6.67587 0.802219 6.74563 1 6.74563C1.01393 6.74518 1.02773 6.74237 1.041 6.7373C1.0543 6.73172 1.06804 6.72774 1.082 6.7254L1.541 13.2779L2 19.8293H18L18.459 13.2779L18.918 6.7254C18.9316 6.72781 18.945 6.7318 18.958 6.7373C18.9716 6.74248 18.9857 6.74529 19 6.74563C19.2652 6.74563 19.5196 6.62031 19.7071 6.39725C19.8946 6.17419 20 5.87166 20 5.5562C20 5.24075 19.8946 4.93822 19.7071 4.71516C19.5196 4.4921 19.2652 4.36678 19 4.36678Z" fill="white"/>
</svg>
