<svg width="50" height="50" viewBox="0 0 50 50" fill="none" xmlns="http://www.w3.org/2000/svg">
<path d="M7.08329 42.4999L43.4375 26.9166C43.8133 26.7565 44.1337 26.4894 44.359 26.1487C44.5842 25.8079 44.7043 25.4084 44.7043 24.9999C44.7043 24.5914 44.5842 24.192 44.359 23.8512C44.1337 23.5104 43.8133 23.2433 43.4375 23.0833L7.08329 7.49992C6.7685 7.36262 6.42448 7.30584 6.08227 7.33472C5.74005 7.36359 5.41041 7.47721 5.12308 7.66532C4.83575 7.85343 4.59977 8.11011 4.43643 8.41221C4.27309 8.71431 4.18752 9.05232 4.18746 9.39575L4.16663 18.9999C4.16663 20.0416 4.93746 20.9374 5.97913 21.0624L35.4166 24.9999L5.97913 28.9166C4.93746 29.0624 4.16663 29.9583 4.16663 30.9999L4.18746 40.6041C4.18746 42.0833 5.70829 43.1041 7.08329 42.4999Z" fill="white"/>
</svg>
