<svg width="336" height="60" viewBox="0 0 336 60" fill="none" xmlns="http://www.w3.org/2000/svg">
<path d="M33.2422 47H26.0469L13.0859 24.875V47H6.35938V13.3906H13.5547L26.5156 35.5391V13.3906H33.2422V47ZM62.5391 47H39.5V13.3906H62.5391V20.1172H46.2266V26.8438H57.2656V33.5703H46.2266V40.2734H62.5391V47ZM93.3594 47H85.2031L78.7344 36.1484L72.2422 47H64.1328L74.4453 30.1953L64.1328 13.3906H72.2422L78.7344 24.2422L85.2031 13.3906H93.3594L83.0469 30.1953L93.3594 47ZM110.609 47H103.906V20.1172H93.8047V13.3906H120.688V20.1172H110.609V47ZM147.781 47H124.25V13.3906H130.977V40.2734H147.781V47ZM171.078 33.5703V26.8438C171.078 25.9219 170.898 25.0547 170.539 24.2422C170.195 23.4141 169.719 22.6953 169.109 22.0859C168.5 21.4766 167.781 21 166.953 20.6562C166.141 20.2969 165.273 20.1172 164.352 20.1172C163.43 20.1172 162.555 20.2969 161.727 20.6562C160.914 21 160.203 21.4766 159.594 22.0859C158.984 22.6953 158.5 23.4141 158.141 24.2422C157.797 25.0547 157.625 25.9219 157.625 26.8438V33.5703H171.078ZM177.805 47H171.078V40.2734H157.625V47H150.922V26.8438C150.922 24.9844 151.273 23.2422 151.977 21.6172C152.68 19.9766 153.633 18.5469 154.836 17.3281C156.055 16.1094 157.477 15.1484 159.102 14.4453C160.742 13.7422 162.492 13.3906 164.352 13.3906C166.211 13.3906 167.953 13.7422 169.578 14.4453C171.219 15.1484 172.648 16.1094 173.867 17.3281C175.086 18.5469 176.047 19.9766 176.75 21.6172C177.453 23.2422 177.805 24.9844 177.805 26.8438V47ZM209.914 33.5703C209.914 35.4297 209.562 37.1797 208.859 38.8203C208.156 40.4453 207.195 41.8672 205.977 43.0859C204.758 44.2891 203.328 45.2422 201.688 45.9453C200.062 46.6484 198.32 47 196.461 47C194.602 47 192.852 46.6484 191.211 45.9453C189.586 45.2422 188.164 44.2891 186.945 43.0859C185.742 41.8672 184.789 40.4453 184.086 38.8203C183.383 37.1797 183.031 35.4297 183.031 33.5703V13.3906H189.734V33.5703C189.734 34.4922 189.906 35.3594 190.25 36.1719C190.609 36.9844 191.094 37.6953 191.703 38.3047C192.312 38.9141 193.023 39.3984 193.836 39.7578C194.664 40.1016 195.539 40.2734 196.461 40.2734C197.383 40.2734 198.25 40.1016 199.062 39.7578C199.891 39.3984 200.609 38.9141 201.219 38.3047C201.828 37.6953 202.305 36.9844 202.648 36.1719C203.008 35.3594 203.188 34.4922 203.188 33.5703V13.3906H209.914V33.5703ZM242.633 47H235.438L222.477 24.875V47H215.75V13.3906H222.945L235.906 35.5391V13.3906H242.633V47ZM282.523 20.1172V33.5703H289.25C290.172 33.5703 291.039 33.3984 291.852 33.0547C292.664 32.6953 293.375 32.2109 293.984 31.6016C294.594 30.9922 295.07 30.2812 295.414 29.4688C295.773 28.6406 295.953 27.7656 295.953 26.8438C295.953 25.9219 295.773 25.0547 295.414 24.2422C295.07 23.4141 294.594 22.6953 293.984 22.0859C293.375 21.4766 292.664 21 291.852 20.6562C291.039 20.2969 290.172 20.1172 289.25 20.1172H282.523ZM282.523 47H275.797V13.3906H289.25C290.484 13.3906 291.672 13.5547 292.812 13.8828C293.953 14.1953 295.016 14.6484 296 15.2422C297 15.8203 297.906 16.5234 298.719 17.3516C299.547 18.1641 300.25 19.0703 300.828 20.0703C301.422 21.0703 301.875 22.1406 302.188 23.2812C302.516 24.4219 302.68 25.6094 302.68 26.8438C302.68 28 302.531 29.125 302.234 30.2188C301.953 31.3125 301.539 32.3516 300.992 33.3359C300.461 34.3203 299.805 35.2266 299.023 36.0547C298.242 36.8828 297.367 37.6016 296.398 38.2109L300.125 47H292.977L290.047 40.2266L282.523 40.2734V47ZM322.227 47H315.523V36.4766C314.039 36.1016 312.672 35.5 311.422 34.6719C310.188 33.8438 309.125 32.8594 308.234 31.7188C307.344 30.5625 306.648 29.2891 306.148 27.8984C305.664 26.4922 305.422 25.0156 305.422 23.4688V13.3906H312.148V23.4688C312.148 24.3906 312.32 25.2656 312.664 26.0938C313.023 26.9062 313.508 27.6172 314.117 28.2266C314.727 28.8359 315.438 29.3203 316.25 29.6797C317.078 30.0234 317.953 30.1953 318.875 30.1953C319.797 30.1953 320.664 30.0234 321.477 29.6797C322.305 29.3203 323.023 28.8359 323.633 28.2266C324.242 27.6172 324.719 26.9062 325.062 26.0938C325.422 25.2656 325.602 24.3906 325.602 23.4688V13.3906H332.305V23.4688C332.305 25.0156 332.055 26.4922 331.555 27.8984C331.07 29.2891 330.383 30.5625 329.492 31.7188C328.602 32.8594 327.539 33.8438 326.305 34.6719C325.07 35.5 323.711 36.1016 322.227 36.4766V47Z" fill="white"/>
<path d="M247.542 18.5417C247.542 17.6355 247.902 16.7665 248.542 16.1257C249.183 15.485 250.052 15.125 250.958 15.125H268.042C268.948 15.125 269.817 15.485 270.458 16.1257C271.098 16.7665 271.458 17.6355 271.458 18.5417V42.4583C271.458 43.3645 271.098 44.2335 270.458 44.8743C269.817 45.515 268.948 45.875 268.042 45.875H250.958C250.052 45.875 249.183 45.515 248.542 44.8743C247.902 44.2335 247.542 43.3645 247.542 42.4583V18.5417Z" stroke="white" stroke-width="4" stroke-linecap="round" stroke-linejoin="round"/>
<path d="M252.667 20.25H252.684M257.792 20.25H257.809M262.917 20.25H266.333M252.667 33.9167C252.667 35.729 253.387 37.4671 254.668 38.7486C255.95 40.0301 257.688 40.75 259.5 40.75C261.312 40.75 263.05 40.0301 264.332 38.7486C265.613 37.4671 266.333 35.729 266.333 33.9167C266.333 32.1044 265.613 30.3663 264.332 29.0848C263.05 27.8033 261.312 27.0833 259.5 27.0833C257.688 27.0833 255.95 27.8033 254.668 29.0848C253.387 30.3663 252.667 32.1044 252.667 33.9167Z" stroke="white" stroke-width="4" stroke-linecap="round" stroke-linejoin="round"/>
<path d="M252.667 33.9167C254.944 32.7772 257.223 32.7772 259.5 33.9167C261.777 35.0561 264.056 35.0561 266.333 33.9167" stroke="white" stroke-width="4" stroke-linecap="round" stroke-linejoin="round"/>
</svg>
