<svg width="95" height="95" viewBox="0 0 95 95" fill="none" xmlns="http://www.w3.org/2000/svg">
<path d="M13.5449 7.60742V22.0801H33.9551V7.60742H13.5449ZM37.2949 7.60742V22.0801H81.4551V7.60742H37.2949ZM74.2188 11.875C75.0061 11.875 75.7612 12.1878 76.318 12.7445C76.8747 13.3013 77.1875 14.0564 77.1875 14.8438C77.1875 15.6311 76.8747 16.3862 76.318 16.943C75.7612 17.4997 75.0061 17.8125 74.2188 17.8125C73.4314 17.8125 72.6763 17.4997 72.1195 16.943C71.5628 16.3862 71.25 15.6311 71.25 14.8438C71.25 14.0564 71.5628 13.3013 72.1195 12.7445C72.6763 12.1878 73.4314 11.875 74.2188 11.875ZM41.5625 13.1738H50.4688V16.5137H41.5625V13.1738ZM56.4062 13.1738H65.3125V16.5137H56.4062V13.1738ZM13.5449 25.4199V90.3613H81.4551V25.4199H13.5449ZM47.5 30.9863C62.8447 30.9863 75.332 43.4736 75.332 58.8184C75.332 74.1631 62.8447 86.6504 47.5 86.6504C32.1553 86.6504 19.668 74.1631 19.668 58.8184C19.668 43.4736 32.1553 30.9863 47.5 30.9863ZM47.5 34.3262C33.9551 34.3262 23.0078 45.2734 23.0078 58.8184C23.0078 72.3633 33.9551 83.3105 47.5 83.3105C56.499 83.3105 64.3477 78.4863 68.5967 71.2686L63.0117 66.7969C61.5451 69.647 59.3215 72.038 56.5851 73.7073C53.8488 75.3766 50.7054 76.2598 47.5 76.2598C42.8746 76.2588 38.4388 74.4209 35.1681 71.1502C31.8975 67.8795 30.0596 63.4438 30.0586 58.8184C30.0596 54.1929 31.8975 49.7572 35.1681 46.4865C38.4388 43.2158 42.8746 41.3779 47.5 41.377C50.8567 41.3761 54.1424 42.3438 56.9629 44.1637C59.7834 45.9837 62.019 48.5788 63.4014 51.6377L69.042 47.1289C64.9043 39.5029 56.8145 34.3262 47.5 34.3262ZM46.2197 45.8301C36.9238 46.0342 31.9512 55.293 34.7158 63.2529C34.5859 56.2393 40.3008 48.7803 46.2197 45.8301ZM70.4522 50.2646L64.5147 55.0146C64.796 56.2631 64.9391 57.5386 64.9414 58.8184C64.9429 60.4178 64.7243 62.0099 64.292 63.5498L70.1182 68.2256C71.3242 65.3311 71.9922 62.1582 71.9922 58.8184C71.9922 55.8125 71.4541 52.918 70.4522 50.2646Z" fill="white"/>
</svg>
